PathFileType	4	(X/Y/Z)	8_coords_data.trc
DataRate	CameraRate	NumFrames	NumMarkers	Units	OrigDataRate	OrigDataStartFrame	OrigNumFrames
30.0	30.0	7	21	m	30.0	43	53
Frame#	Time	THUMB_TIP	THUMB_IP	THUMB_MCP	THUMB_CMC	INDEX_TIP	INDEX_DIP	INDEX_PIP	INDEX_MCP	MIDDLE_TIP	MIDDLE_DIP	MIDDLE_PIP	MIDDLE_MCP	RING_TIP	RING_DIP	RING_PIP	RING_MCP	PINKY_TIP	PINKY_DIP	PINKY_PIP	PINKY_MCP	WRIST
X1	Y1	Z1	X2	Y2	Z2	X3	Y3	Z3	X4	Y4	Z4	X5	Y5	Z5	X6	Y6	Z6	X7	Y7	Z7	X8	Y8	Z8	X9	Y9	Z9	X10	Y10	Z10	X11	Y11	Z11	X12	Y12	Z12	X13	Y13	Z13	X14	Y14	Z14	X15	Y15	Z15	X16	Y16	Z16	X17	Y17	Z17	X18	Y18	Z18	X19	Y19	Z19	X20	Y20	Z20	X21	Y21	Z21
42	1.4	-0.029533500671386718	-0.09086489868164062	0.9729959716796875	-0.029226499557495116	-0.06692189788818359	0.98422900390625	-0.0335077018737793	-0.045162799835205075	1.0000900268554687	-0.03729930114746094	-0.014704299926757812	1.010969970703125	-0.03007259941101074	-0.05437710189819336	0.8821920166015625	-0.03221739959716797	-0.05054399871826172	0.9040380249023438	-0.037206298828125	-0.04598870086669922	0.9249959716796875	-0.042521800994873044	-0.03612350082397461	0.9598930053710938	-0.03454290008544922	-0.032995601654052735	0.8654769897460938	-0.03632989883422852	-0.029521799087524413	0.8892550048828125	-0.04275830078125	-0.024849599838256835	0.9155009765625	-0.0460525016784668	-0.016700199127197266	0.9537420043945313	-0.0348760986328125	-0.011342599868774414	0.8714530029296875	-0.038960498809814455	-0.007368810176849365	0.8941539916992187	-0.04463650131225586	-0.003582030057907104	0.9184210205078125	-0.04450180053710937	0.001999459981918335	0.9539229736328125	-0.036416099548339846	0.016752300262451173	0.8922050170898438	-0.038712398529052734	0.018314699172973632	0.9126649780273437	-0.041169498443603514	0.019013200759887695	0.9300339965820312	-0.04098720169067383	0.019703699111938477	0.9565339965820312	-0.06274850082397461	0.011862899780273438	1.0246300048828125
43	1.4333333333333333	-0.030384899139404297	-0.09089279937744141	0.9725390014648437	-0.02978230094909668	-0.06692299652099609	0.9838270263671876	-0.03386980056762695	-0.04517300033569336	0.9997520141601562	-0.037368499755859375	-0.014725600242614746	1.0106900024414063	-0.030254100799560545	-0.05484980010986328	0.8819509887695313	-0.03234130096435547	-0.050900699615478516	0.9037429809570312	-0.037356700897216794	-0.046179698944091796	0.9247000122070312	-0.04261880111694336	-0.0359463005065918	0.959697998046875	-0.033475399017333984	-0.032767398834228516	0.8652760009765625	-0.035621498107910154	-0.02931999969482422	0.8890189819335937	-0.042338001251220704	-0.02465959930419922	0.915208984375	-0.04599750137329101	-0.01653179931640625	0.9532379760742188	-0.03392380142211914	-0.011309399604797363	0.8714019775390625	-0.038335498809814454	-0.007317890167236328	0.893969970703125	-0.04420790100097656	-0.003497819900512695	0.9181380004882812	-0.04459099960327149	0.002069479942321777	0.953552001953125	-0.03639590072631836	0.0169286994934082	0.8918660278320313	-0.038691501617431644	0.018474599838256837	0.9123289794921875	-0.04111529922485352	0.019134700775146483	0.9296580200195312	-0.040955699920654294	0.019776800155639648	0.9561680297851562	-0.06286470031738281	0.011873900413513183	1.02422998046875
44	1.4666666666666666	-0.030085800170898437	-0.09069059753417968	0.9723989868164062	-0.02954719924926758	-0.06675309753417968	0.9837069702148438	-0.033656299591064455	-0.04507389831542969	0.999552001953125	-0.03711669921875	-0.014603899955749513	1.0104600219726563	-0.030188100814819336	-0.055117801666259764	0.881906982421875	-0.03233689880371094	-0.05105780029296875	0.903614990234375	-0.037347801208496095	-0.0462338981628418	0.9245469970703125	-0.04233560180664062	-0.03579180145263672	0.9595380249023437	-0.03422320175170898	-0.03270650100708008	0.8649739990234375	-0.03610990142822266	-0.029255800247192383	0.8887230224609375	-0.04255390167236328	-0.024575199127197266	0.9150130004882813	-0.0458302001953125	-0.016427799224853514	0.9531719970703125	-0.034067901611328125	-0.010938300132751464	0.8710059814453125	-0.03842699813842773	-0.0070285601615905765	0.893760009765625	-0.044206298828125	-0.003271749973297119	0.917947998046875	-0.0443844985961914	0.002106319904327392	0.9531500244140625	-0.03627640151977539	0.017433099746704102	0.8915239868164062	-0.03852610015869141	0.01883180046081543	0.9121019897460938	-0.040961498260498046	0.019380699157714842	0.9294420166015624	-0.04073239898681641	0.019878900527954102	0.9559219970703124	-0.06259049987792968	0.011946999549865722	1.024010009765625
45	1.5	-0.0301481990814209	-0.09053990173339843	0.9720980224609375	-0.029539800643920897	-0.06659619903564454	0.9834710083007813	-0.03368980026245117	-0.04488410186767578	0.9993880004882812	-0.03717340087890625	-0.01446399974822998	1.0102899780273438	-0.03072130012512207	-0.05472529983520508	0.88147900390625	-0.032741500854492185	-0.05075579833984375	0.9033079833984375	-0.03762060165405273	-0.04599919891357422	0.92425	-0.04241709899902344	-0.03570750045776367	0.9592780151367187	-0.033982898712158205	-0.032829898834228516	0.864822021484375	-0.03599879837036133	-0.02931649971008301	0.8885830078125	-0.04252730178833008	-0.024569000244140625	0.9148480224609375	-0.045743900299072264	-0.016317399978637695	0.9527739868164062	-0.03370180130004883	-0.010815799713134766	0.870885009765625	-0.03823899841308594	-0.006892630100250244	0.8935919799804688	-0.04414279937744141	-0.0031503899097442617	0.917719970703125	-0.044127498626708984	0.002354199886322021	0.95297802734375	-0.035882198333740234	0.01785110092163086	0.891333984375	-0.03825830078125	0.019151500701904297	0.911916015625	-0.040803600311279296	0.019620800018310548	0.9292169799804687	-0.04063249969482422	0.020001199722290038	0.9556790161132812	-0.06256529998779296	0.012060500144958497	1.0237899780273438
46	1.5333333333333334	-0.03042300033569336	-0.09055349731445313	0.9719550170898438	-0.029711799621582033	-0.06659329986572265	0.9833270263671875	-0.03387360000610352	-0.04487630081176758	0.9991900024414062	-0.03736830139160156	-0.014368499755859375	1.0100900268554687	-0.030317399978637697	-0.0544031982421875	0.88122900390625	-0.03249679946899414	-0.05046149826049805	0.9030430297851563	-0.03738800048828125	-0.04575260162353516	0.9240170288085937	-0.04224959945678711	-0.035624801635742186	0.9591110229492188	-0.033062999725341796	-0.03245550155639648	0.8646740112304687	-0.0353140983581543	-0.028958499908447264	0.8884390258789062	-0.042047298431396485	-0.024260799407958986	0.9146400146484375	-0.045533401489257816	-0.016101400375366212	0.9525460205078125	-0.03311109924316406	-0.010425100326538086	0.8706920166015625	-0.03774639892578125	-0.00654764986038208	0.893406005859375	-0.04375329971313477	-0.0028976399898529054	0.9174860229492188	-0.044152999877929686	0.002390599966049194	0.9525960083007813	-0.03557820129394531	0.018018400192260742	0.8912849731445313	-0.03801089859008789	0.019295799255371095	0.9117349853515625	-0.04056779861450195	0.01975629997253418	0.9290189819335938	-0.04051219940185547	0.020144500732421876	0.9555360107421875	-0.06301359939575195	0.012527899742126465	1.02377001953125
47	1.5666666666666667	-0.030284400939941405	-0.09034539794921875	0.9718099975585938	-0.02969219970703125	-0.06640440368652344	0.983156982421875	-0.0336968994140625	-0.04463999938964844	0.9989719848632812	-0.03725839996337891	-0.014187299728393554	1.0098200073242187	-0.0310447998046875	-0.054667900085449216	0.8810999755859374	-0.03304050064086914	-0.0505989990234375	0.9028839721679688	-0.03781760025024414	-0.045813301086425784	0.9238619995117188	-0.04235010147094727	-0.035448001861572265	0.9588759765625	-0.03467919921875	-0.0326875	0.8643319702148438	-0.03648199844360352	-0.029131799697875976	0.8880869750976562	-0.04286119842529297	-0.02437660026550293	0.9143699951171875	-0.045799400329589846	-0.016003000259399415	0.9523330078125	-0.034942001342773435	-0.010383000373840332	0.87022998046875	-0.03907149887084961	-0.006506120204925537	0.8930349731445313	-0.044698799133300784	-0.0028469998836517327	0.9172960205078124	-0.0443400993347168	0.002562900066375732	0.9524949951171875	-0.036860401153564454	0.018235599517822266	0.89081298828125	-0.03900899887084961	0.01948460006713867	0.9113489990234375	-0.041310001373291015	0.019923099517822264	0.9286829833984375	-0.04086410140991211	0.020266399383544922	0.9552050170898437	-0.06272769927978515	0.012336000442504883	1.023469970703125
48	1.6	-0.031173099517822267	-0.09038059997558594	0.9714550170898437	-0.03052400016784668	-0.06643669891357422	0.9828709716796875	-0.03437889862060547	-0.044703498840332034	0.9986279907226563	-0.037628799438476565	-0.01423449993133545	1.009510009765625	-0.032183300018310546	-0.054988601684570315	0.8807429809570313	-0.033996200561523436	-0.05092169952392578	0.9025040283203125	-0.03864630126953125	-0.04598720169067383	0.9234719848632813	-0.04292250061035156	-0.0353765983581543	0.9584970092773437	-0.035241798400878904	-0.03270449829101563	0.8640230102539063	-0.037012401580810546	-0.02913960075378418	0.8877429809570313	-0.043353199005126956	-0.024351999282836913	0.9139979858398437	-0.04629750061035156	-0.01601889991760254	0.9521259765625	-0.03536360168457031	-0.010418999671936035	0.869906982421875	-0.03949789810180664	-0.006517129898071289	0.8926929931640625	-0.045090301513671875	-0.0027920999526977537	0.9169439697265624	-0.044941299438476565	0.002497679948806762	0.9521069946289062	-0.03712829971313476	0.01804719924926758	0.8904110107421875	-0.039312599182128906	0.01938279914855957	0.9110239868164063	-0.04164979934692383	0.019886199951171874	0.9283410034179688	-0.04124589920043945	0.02031399917602539	0.9548729858398437	-0.06292470169067382	0.01240120029449463	1.02302001953125
